<?xml version="1.0" encoding="utf-8"?>
<!-- Generator: Adobe Illustrator 27.7.0, SVG Export Plug-In . SVG Version: 6.00 Build 0)  -->
<svg version="1.1" id="Layer_1" xmlns="http://www.w3.org/2000/svg" xmlns:xlink="http://www.w3.org/1999/xlink" x="0px" y="0px"
	 viewBox="0 0 1403.8 331.1" style="enable-background:new 0 0 1403.8 331.1;" xml:space="preserve">
<style type="text/css">
	.st0{fill:#678693;}
	.st1{fill:#2E3E47;}
</style>
<g>
	<g>
		<path class="st0" d="M317.9,237.1v-4.8c0.1-2.5,0.2-5.1,0.2-7.8c0-3.4,0-6.6,0-9.6l-0.2,0c-0.3-3.7-3.4-6.6-7.1-6.6h-31.1h-3.8
			h-57.5c-4,0-7.2,3.2-7.2,7.2v35.1c0,7.6-7.6,12.4-13.6,8.6L87.8,178.9l-6-4.4c-6-3.8-6-13.3,0-17.1l115.8-84.7
			c6-3.8,13.6,0.9,13.6,8.6v35.1c0,4,3.2,7.2,7.2,7.2h61.2h31.1c4,0,7.2-3.2,7.2-7.2V115c0-3,0-6.1,0-9.6c0-3.4-0.1-6.7-0.2-9.8
			c-0.2-3.1-0.2-5.3-0.2-6.5c0-13.4-5.1-25.4-15.4-36c-6.3-6.2-12.5-12.2-18.8-18c-6.3-5.8-12.7-11.8-19.3-18
			C252.1,6.6,238.2,1.3,222.4,1.3H96.6C80.8,1.3,66.9,6.6,55,17.2c-6.6,6.2-13,12.2-19.3,18c-6.3,5.8-12.6,11.8-18.8,18
			C6.7,63.7,1.5,75.7,1.5,89.1c-0.3,12.8-0.4,25.4-0.2,37.8C1.5,139.4,1.4,152,1,164.8v72.4c0,5.3,0.7,10.4,2,15.3
			c2.1,8.9,6.8,17,14,24.5c6.3,6.2,12.5,12.2,18.8,18s12.7,11.8,19.3,18c11.9,10.6,25.8,15.9,41.6,15.9h125.8
			c15.9,0,29.7-5.3,41.6-15.9c6.6-6.2,13-12.2,19.3-18c6.3-5.8,12.5-11.8,18.8-18c9.3-9.7,14.4-20.5,15.2-32.5
			C317.8,242.1,317.9,239.6,317.9,237.1z"/>
		<path class="st0" d="M576.3,288.1c-3.5-9.8-4.4-20.4-2.7-31.7c3-19.8,10.3-44,21.5-72.1c6.5-16.4,13.5-32.9,22.1-52.1
			c-0.2,0.1-0.3,0.1-0.5,0.1c-2.3,0.9-4.7,1.4-7.1,1.4c-16.8,0-25.1-19.9-26.4-32.4c-1.7-16.6,7.4-24.5,15.7-26.2
			c6.6-1.4,16.8-2.9,30-4.6c-2.4-5.5-5.9-10.7-10.5-15.6c-7.2-7.8-14.5-15.4-22.1-22.8c-7.6-7.5-15.3-14.9-23.1-22.4
			c-5.3-4.7-11-7-17.2-7H324.2c-10.9,0-16.7,12.9-9.5,21.1l1.3,1.5c8.4,9.5,27.9,21.7,27.9,34.4v56.5c0,4,3.2,7.2,7.2,7.2h23.7h50.7
			c2.8,0,5.1-2.3,5.1-5.1V81.2c0-7.6,7.6-12.4,13.6-8.6l103.8,75.9l12,8.8c3.4,2.1,4.9,6.1,4.5,9.8c-0.3,2.9-1.8,5.7-4.5,7.3
			l-115.8,84.7c-6,3.8-13.6-1-13.6-8.6v-13.9v-8.1v-13c0-0.1,0-0.1,0-0.2v-1.6c0-2.8-2.3-5.1-5.1-5.1h-0.1c-0.6-0.2-1.3-0.3-2-0.3
			h-48.6h-23.7c-4,0-7.2,3.2-7.2,7.2v0.1c0,0.1,0,0.1,0,0.2v56.5c0,12.7-19.5,24.9-27.9,34.4l-1.3,1.5c-7.3,8.2-1.5,21.1,9.5,21.1
			H556c6.2,0,12-2.3,17.2-7c5.4-5.2,10.8-10.4,16.1-15.6C583.2,301.5,578.9,295.3,576.3,288.1z"/>
		<g>
			<g>
				<path class="st1" d="M1070.2,158.6c11.4-23.1-19.3-50.7-42.8-40.5c-18.8,8.1-51.4,61.1-62.9,76.4
					c12.4-32.9,46.8-104.1,72.5-129.5c12-12-36.6-40.9-43.2-26.8c-24.5,51.1-124.9,254.2-157.3,218.6
					c-17.5-19.1,22.9-110.1,51.7-122.1c-13.2,23.4-30.2,73.2-8.2,87.3c3.5-24.7,37.6-79.6,59.3-99.2c7.9-7.1-24.4-30-32.8-20.8
					c-3.8,3.9-11.9,19.9-14,23.4c-28.2-31.4-81.2,25-96.4,78.5c-32.3,50.3-71.3,74.4-79.8,58.9c-5.9-11.2,0.8-40.4,7.2-54.7
					c40,29.5,74.1-14.3,79.1-48.1c4.3-29.5-22.1-47.8-52.7-37.2c-25.4,8.9-53.1,41.1-67.3,73.3c-5.6,9.4-10.8,18.2-15.5,26.2
					c-12,20.6-21.6,35.9-28.7,45.6c-7.1,9.7-11.9,14.2-14.3,13c-2.5-1.1-1.3-9.9,3.3-26.5c4.6-16.5,12.4-36.6,23.4-60.1
					c10.9-23.6,23.1-47.3,39.4-76.8c3.1-5.6-6.3-11.2-29.8-11.9c28.7-5.8,54.9-6.1,80.2-6.1c25.2,0.2,47.8,2.3,67.7,6.6
					c2.1,0.5,4.1-0.8,5.9-4.1c2-3.5,3.6-7.6,4.8-12.5c1.2-4.8,1.7-9.2,1.3-13.2c-0.2-3.9-1.7-6.1-4.1-6.6c-3.8-0.7-15.3-0.3-34.4,1
					c-19.3,1.5-41.3,3.3-66.2,5.6c4.6-6.8,9.4-13.3,14-19.3c2.1-3,1.7-6.8-1.5-11.2c-3.3-4.4-7.9-8.4-13.8-12.2
					c-6.1-3.6-12-5.9-17.8-6.8c-5.8-0.8-10,0.7-12.7,4.8C676,46.2,667.4,63,657.8,82.5c-4,0.3-7.9,0.8-11.9,1.3
					c-21.2,2.5-35.9,4.6-44,6.3c-9.6,2,0,33.1,9.7,28.3c13-3.8,24-6.9,32.8-9.2c-15.3,32.6-25.9,56.7-35.4,80.9
					c-11,27.5-17.8,50.4-20.6,68.7c-1.3,8.7-0.7,17,2,24.4c2.6,7.4,8.4,13.3,17.3,17.8c13,6.4,24.5,4.1,34.9-6.6
					c7.9-8.7,16.2-20.6,24.7-35.8c2.3-4.1,4.5-8.1,6.7-12.1c7.2,29.4,53.6,51.7,81.9,32.5c12.4-8.4,25-24.7,36.2-41.8
					c0.2,2,0.4,3.9,0.7,5.7c5.8,32.5,54.2,47.6,83.9,26.4c22.7-16.3,45-64.9,64.6-100c-13,30.3-22.2,55.5-33.6,82.5
					c-6.3,14.8,34.9,26.2,39.5,15.2c32-75.6,83.7-144.3,93.7-131.8c2.6,3-2.6,10.7-11.5,23.4c-18.1,26.4-44.7,69.2-49.3,100.7
					c-6.6,47.1,32.5,67.5,56,59.3C989.8,302.2,1057.9,183.9,1070.2,158.6z M778.8,139.6c7.1,4.3-20.9,62.6-51.1,58.5
					C736.7,175.2,768.7,133.5,778.8,139.6z"/>
				<path class="st1" d="M1124.9,138.3c6.1,3.1,37.7-36.9,43.8-46.6c6.8-10.9-28.2-31.5-35.1-18.8
					C1128.2,82.8,1118,134.7,1124.9,138.3z"/>
				<path class="st1" d="M1366.8,189.7c0.3-18,11.4-52.7,34.8-79.6c6.8-7.9-24.4-25.9-33.1-20.9c-3.6,2-9.6,17.3-12,24.9
					c-18.9-12.9-44.3-7.9-62.3,10.9c-37.4,39.4-68.5,135.8-106.4,141c-26.9,3.6-26.4-40.9-16-60.8c40,29.5,74.8-15.6,79.6-49.4
					c4.3-29.3-21.1-47.3-51.4-36.4c-37.1,13.5-71.3,63.5-77.2,101.4c-15.4,28.4-28.2,46.9-33,42.9c-5.9-4.9,13.5-59,45.3-101.3
					c6.4-8.4-30.8-32.3-37.7-21.6c-11.9,18.8-46.5,80.2-43,113.8c3,29.5,41.5,38.5,55.5,19.3c5-7,10-15.7,14.9-25
					c12.3,34.8,59.8,50.2,88.9,30.9c32-21.2,51.7-82.1,71-106.3c1,13.2,10.7,28.8,18.9,39.2c-13,6.9-39.9,24-50.9,43.7
					c-18,31.8,12.7,62.4,46.3,54.4c36.9-8.9,65.6-56,40-95.4c19.4-11,46.1-15,58.5-15.5c-8.6-7.6-36.7-11.5-67.9,1.5
					c-20.1-37.1-13.5-70.8,23.7-78.3C1340.8,160.7,1353.1,184.6,1366.8,189.7z M1225.1,137.5c4.8,3.1-22.6,61-48.8,56.3
					C1185.4,170.9,1215.2,131.2,1225.1,137.5z M1294.8,269.9c-22.1,19.9-43.5,14.5-12.7-17.5c7.9-8.1,18.3-16.6,30.6-23.4
					C1313.9,244.5,1305.5,260.4,1294.8,269.9z"/>
			</g>
		</g>
	</g>
</g>
</svg>
