<?xml version="1.0" encoding="utf-8"?>
<!-- Generator: Adobe Illustrator 27.9.0, SVG Export Plug-In . SVG Version: 6.00 Build 0)  -->
<svg version="1.1" id="Layer_1" xmlns="http://www.w3.org/2000/svg" xmlns:xlink="http://www.w3.org/1999/xlink" x="0px" y="0px"
	 viewBox="0 0 436.7 341.1" style="enable-background:new 0 0 436.7 341.1;" xml:space="preserve">
<style type="text/css">
	.st0{fill:none;}
	.st1{fill:#678693;}
	.st2{fill:#2E3E47;}
</style>
<path class="st0" d="M218.3,240.9c0.2-0.2,0.3-0.5,0.5-0.7H218C218.1,240.5,218.2,240.7,218.3,240.9z"/>
<g>
	<path class="st1" d="M88.2,223.3C88.1,223.3,88.1,223.3,88.2,223.3c-1.5,0.6-2.9,0.8-4.5,0.8c-10.4,0-15.5-12.2-16.2-19.9
		c-1-10.2,4.6-15.1,9.7-16.1c1.6-0.3,3.6-0.7,6-1.1c5.5-0.9,12.8-1.9,21.7-2.9c0.7-0.1,1.5-0.2,2.3-0.3c3.7-7.6,7.2-14.4,10.5-20.6
		l-58.5-42.8l0,0c-4.1-2.6-4.1-9,0-11.6l78.5-57.4c4.1-2.6,9.2,0.6,9.2,5.8v23.8c0,2.7,2.2,4.9,4.9,4.9h41.5h21.1
		c2.7,0,4.9-2.2,4.9-4.9v-0.9c0-2,0-4.2,0-6.5c0-2.3-0.1-4.5-0.2-6.7c-0.1-2.1-0.2-3.6-0.2-4.4c0-9.1-3.5-17.2-10.4-24.4
		c-4.3-4.2-8.5-8.3-12.8-12.2c-4.3-3.9-8.6-8-13.1-12.2c-8.1-7.2-17.5-10.8-28.2-10.8H69.1c-10.7,0-20.1,3.6-28.2,10.8
		C36.4,18.1,32,22.1,27.8,26c-4.3,3.9-8.5,8-12.8,12.2C8.1,45.4,4.6,53.5,4.6,62.6c-0.2,8.7-0.3,17.2-0.2,25.7
		c0.1,8.4,0.1,17-0.2,25.7V163c0,2,0.1,3.9,0.4,5.7c0.5,8.3,3.9,15.8,10.4,22.5c4.2,4.2,8.5,8.3,12.8,12.2c4.2,3.9,8.6,8,13.1,12.2
		c8.1,7.2,17.5,10.8,28.2,10.8h17.7C87.2,225.3,87.7,224.3,88.2,223.3z"/>
	<path class="st1" d="M214.3,143.5h-21.1h-41.5c-1.3,0-2.6,0.5-3.4,1.4c-0.9,0.9-1.4,2.1-1.4,3.4v3.7c1.8,0.8,3.7,1.7,5.5,2.8
		l0.3,0.2c4.7,3,8.3,6.2,10.9,9.7l0.1,0.2c3,4.3,4,8.9,3,13c7-0.6,14.2-1.2,21.5-1.7c8.1-0.6,14-0.8,17.9-0.8c2.4,0,4.1,0.1,5.5,0.3
		l0.2,0c1.7,0.3,3.5,1.1,5.1,2.3c1.1-3.1,1.8-6.4,2-9.7c0.2-1.8,0.4-3.6,0.4-5.4v-6.4c0-0.3,0-0.6,0-0.9c0-2.3,0-4.5,0-6.5v-0.9
		C219.2,145.7,217,143.5,214.3,143.5z"/>
	<path class="st1" d="M136.9,226c-0.1,0.1-0.1,0.2-0.2,0.3h4.3c4.4-4.6,9-8.7,13.6-11.8c1.1-0.8,2.3-1.5,3.4-2.1
		c-5.3,0-10.5,0.1-15.6,0.4c0,2-0.5,4-1.5,5.8C139.6,221.1,138.2,223.6,136.9,226z"/>
	<path class="st1" d="M432.7,63.5v-0.3c0-8.8-3.3-16.7-9.8-23.7c-4.8-5.3-9.8-10.4-15-15.5C402.7,19,397.5,14,392.3,8.9
		c-3.6-3.2-7.5-4.7-11.7-4.7H223.4c-7.4,0-11.3,8.8-6.4,14.3l0.9,1c5.7,6.4,18.9,14.7,18.9,23.3v38.3c0,2.7,2.2,4.9,4.9,4.9h16.1
		h34.4c1.9,0,3.4-1.5,3.4-3.4V57.3c0-5.2,5.1-8.4,9.2-5.8l78.5,57.4c0,0,0,0,0,0l0,0c1.5,1,2.5,2.5,2.9,4.1c0.6,2.7-0.3,5.9-2.9,7.5
		l-49.2,36c5,2.1,9.7,5.1,13,8c5.2,4.6,8,9.4,8.2,14.3c0.1,3.7-1.3,7.1-3.9,9.7c-3.5,3.5-7.7,8.9-12.2,16c2-0.5,4.2-0.8,6.3-0.8
		c9.6,0,19.2,5.1,25.1,13.4c1.9,2.6,3.2,5.3,4.1,8.1h5.9c4.2,0,8.1-1.6,11.7-4.7c5.3-5.1,10.5-10.1,15.6-15.2
		c5.2-5.1,10.2-10.2,15-15.5c6.5-7,9.8-14.8,9.8-23.7L432.7,63.5L432.7,63.5z"/>
	<path class="st1" d="M217.9,210l-0.9,1c-2.2,2.4-2.6,5.5-1.8,8.2c1.4-1.4,2.9-2.8,4.4-4.1c8.5-7.2,17.2-11,25.2-11
		c3,0,5.9,0.5,8.6,1.5c2-3.6,3.5-5.8,5-7.4c2.5-2.7,6.2-4.3,10.3-4.3c4.9,0,9.6,2.1,12.7,3.9c1.5,0.8,4.7,2.8,7.6,5.6
		c4.7-8.8,8.9-17.2,12.6-24.7c-2.6-0.1-5-2-5.8-4.9c-0.1-0.6-0.2-1.2-0.2-1.8v-25.2c0-1.9-1.5-3.4-3.4-3.4h-1.3c-0.1,0-0.1,0-0.2,0
		h-32.9h-16.1c-2.7,0-4.9,2.2-4.9,4.9v26.3c0,0,0,0,0,0v11.9C236.8,195.2,223.6,203.5,217.9,210z"/>
	<path class="st2" d="M363.1,222.6c-5.3-7.3-15.5-11.9-24.1-8.2c-2.9,1.2-6.3,4.2-10,8.2c-0.8,0.9-1.6,1.8-2.4,2.7
		c-10.2,11.8-21.2,29.3-26.1,35.8c3.3-8.9,9.3-22.3,16.2-35.8c0.6-1.1,1.2-2.3,1.8-3.4c8.4-16.1,18.1-31.8,26.3-39.9
		c2.7-2.7,0.4-6.8-3.8-10.5c-4.5-4-11.3-7.4-16.3-8.1c-3-0.4-5.3,0.2-6.3,2.2c-0.5,1.1-1.1,2.4-1.8,3.7c-6,12.4-16.7,33.9-28.9,56
		c-23.6,42.7-52.9,87.7-65.5,73.9c-10.4-11.4,12.7-64.2,30.1-73.9c0.5-0.3,1-0.5,1.5-0.7c-0.1,0.2-0.3,0.5-0.4,0.7
		c-8,14.6-17.8,44.1-4.6,52.6c1.7-12.5,16.3-37.6,28.8-52.6c2.6-3.2,5.1-5.9,7.4-8c2.7-2.5-2.4-8-8.3-11.3
		c-4.5-2.5-9.5-3.8-11.7-1.3c-2.3,2.4-7.2,12.2-8.6,14.3c-8.3-9.2-20-6.1-31,3.3c-1.1,0.9-2.2,2-3.3,3
		c-10.7,10.4-20.2,26.2-24.6,41.7c-19.8,30.7-43.6,45.5-48.8,36c-3.6-6.8,0.5-24.7,4.4-33.4c24.5,18,45.3-8.8,48.3-29.4
		c1.1-7.3-1-13.5-5-17.8c-3.5-3.7-8.4-6.1-14.1-6.6c-4.1-0.4-8.5,0.1-13.1,1.7c-3.1,1.1-6.3,2.8-9.5,4.9c-1.8,1.2-3.6,2.6-5.4,4.1
		c-10.5,8.9-20.3,22.3-26.2,35.7c-3.4,5.8-6.6,11.1-9.5,16.1c-7.3,12.6-13.2,21.9-17.5,27.9c-4.3,5.9-7.2,8.7-8.8,8
		c-1.5-0.7-0.8-6,2-16.2c2.8-10.1,7.6-22.4,14.3-36.7c5.1-11,10.6-22,17.4-34.7c0.8-1.6,1.7-3.1,2.6-4.8c1.3-2.4,2.7-4.9,4.1-7.5
		c1.9-3.4-3.8-6.8-18.2-7.2c17.5-3.5,33.5-3.7,49-3.7c10.8,0.1,20.8,0.8,30,2c3.9,0.6,7.7,1.2,11.3,2c1.3,0.3,2.5-0.5,3.6-2.5
		c1.2-2.1,2.2-4.6,2.9-7.7c0.7-2.9,1-5.6,0.8-8.1c0-0.8-0.2-1.5-0.4-2c-0.4-1.1-1.1-1.8-2.2-2c-2.3-0.4-9.4-0.2-21,0.6
		c-11.8,0.9-25.3,2-40.5,3.4c2.8-4.1,5.7-8.2,8.6-11.8c1.3-1.8,1-4.1-0.9-6.8c-2-2.7-4.8-5.1-8.5-7.4c-0.3-0.2-0.5-0.3-0.8-0.5
		c-3.4-1.9-6.8-3.2-10.1-3.7c-3.5-0.5-6.1,0.4-7.8,2.9c-1.2,2.3-2.5,4.7-3.8,7.2c-3.7,7.1-7.7,15-12,23.8c-2.4,0.2-4.8,0.5-7.2,0.8
		c-9.1,1.1-16.2,2-21.3,2.8c-2.2,0.4-4.1,0.7-5.6,1c-5.8,1.2,0,20.2,5.9,17.3c5.5-1.6,10.4-3,14.7-4.2c1.9-0.5,3.7-1,5.3-1.4
		c-0.7,1.4-1.3,2.8-1.9,4.1c-2.2,4.7-4.2,9.1-6.1,13.3c-5.3,11.8-9.6,21.9-13.6,32c-6.7,16.8-10.9,30.8-12.6,42
		c-0.8,5.3-0.4,10.4,1.2,14.9c1.6,4.5,5.1,8.2,10.6,10.9c8,3.9,15,2.5,21.3-4c4.8-5.3,9.9-12.6,15.1-21.8c1.4-2.5,2.8-4.9,4.1-7.4
		c4.4,18,32.7,31.6,50.1,19.9c7.6-5.2,15.3-15.1,22.1-25.6c0.1,1.2,0.2,2.4,0.5,3.5c3.5,19.8,33.1,29.1,51.2,16.1
		c13.9-10,27.5-39.7,39.5-61.1c-8,18.5-13.6,33.9-20.5,50.4c-3.8,9.1,21.3,16,24.2,9.3c16-37.9,40.2-73,51.7-80.1
		c2.5-1.6,4.4-1.8,5.5-0.4c0.1,0.1,0.2,0.3,0.3,0.4c0.9,2.1-2.2,6.7-7.3,13.9c-11.1,16.1-27.3,42.3-30.1,61.5
		c-4,28.8,19.8,41.3,34.2,36.2c-28.4-10,13.2-82.3,20.7-97.8c2.3-4.6,1.8-9.6-0.4-13.9C364.3,224.3,363.7,223.4,363.1,222.6z
		 M187,227.6c4.3,2.6-12.8,38.3-31.2,35.7C161.4,249.3,180.9,223.8,187,227.6z"/>
</g>
</svg>
