<?xml version="1.0" encoding="utf-8"?>
<!-- Generator: Adobe Illustrator 27.7.0, SVG Export Plug-In . SVG Version: 6.00 Build 0)  -->
<svg version="1.1" id="Layer_1" xmlns="http://www.w3.org/2000/svg" xmlns:xlink="http://www.w3.org/1999/xlink" x="0px" y="0px"
	 viewBox="0 0 500 500" style="enable-background:new 0 0 500 500;" xml:space="preserve">
<style type="text/css">
	.st0{fill:none;}
	.st1{fill:#678693;}
	.st2{fill:#2E3E47;}
</style>
<path class="st0" d="M249.95,301.02c0.16-0.24,0.34-0.45,0.51-0.68h-0.8C249.76,300.57,249.86,300.8,249.95,301.02z"/>
<g>
	<g>
		<path class="st1" d="M281.11,257.81c1.94,4.67,1.06,9.49-2.34,12.89c-2.58,2.55-6.32,7.52-10.55,14.08
			c1.78-0.45,3.62-0.68,5.5-0.68c8.89,0,17.82,5.13,22.76,13.07c0.65,1.04,1.2,2.1,1.67,3.17h0.8c2.18-2.85,5.55-4.45,9.47-4.45
			c0.75,0,1.53,0.06,2.33,0.18c0.58-11.15,4.48-26.53,6.76-30.67c2.16-3.97,6.27-6.26,11.25-6.26c7.62,0,17.49,5.73,21.12,12.25
			c2.26,4.06,2.27,8.44,0.04,12.03c-1.68,2.68-6.04,8.49-10.77,14.07c5.62-4.95,11.68-8.84,17.81-11.07c4.04-1.45,8.07-2.18,12-2.18
			c8.15,0,15.33,3.11,20.21,8.76c1.88,2.17,3.33,4.64,4.34,7.32h3.18c2.36-3.28,4.77-6.3,7.27-8.92
			c7.34-7.67,16.96-12.06,26.42-12.06c2.71,0,5.37,0.36,7.93,1.05c1.74-3.89,4.07-7.78,6.97-9.43v0c1.74-0.98,3.76-1.48,6.01-1.48
			c2.87,0,6.41,0.92,9.87,2.46c3.14-3.22,6.24-6.47,9.27-9.76c7.04-7.49,10.56-16.01,10.56-25.55v-110.7
			c0-9.54-3.52-18.05-10.56-25.55c-5.23-5.67-10.62-11.24-16.18-16.69c-5.57-5.45-11.19-10.9-16.86-16.35
			c-3.86-3.41-8.06-5.11-12.6-5.11H255.33c-7.99,0-12.22,9.44-6.91,15.41l0.98,1.1c6.17,6.92,20.41,15.86,20.41,25.13v41.27
			c0,2.89,2.35,5.24,5.24,5.24h17.35h37.05c2.04,0,3.7-1.66,3.7-3.7v-27.18c0-5.57,5.52-9.05,9.94-6.26l84.64,61.91
			c4.42,2.78,4.42,9.74,0,12.53l-84.64,61.91c-4.42,2.78-9.94-0.7-9.94-6.26v-25.64c0-2.89-2.35-5.24-5.24-5.24H292.4h-17.35
			c-2.89,0-5.24,2.35-5.24,5.24v28.41C274.87,249.22,279.28,253.39,281.11,257.81z"/>
		<path class="st1" d="M64.55,267.11c0.66-0.08,1.33-0.17,2.02-0.25c4.35-8.77,8.26-16.4,11.91-23.24l0.15-0.28l0.17-0.27
			c2.61-4.08,6.84-6.33,11.91-6.33c0.86,0,1.76,0.07,2.67,0.2c4.03,0.58,8.2,2.13,12.4,4.63l0.22,0.13c4.1,2.62,7.19,5.38,9.47,8.45
			l0.11,0.16c2.63,3.74,3.5,7.77,2.55,11.38c6.16-0.52,12.4-1.03,18.84-1.52c7.08-0.49,12.14-0.72,15.53-0.72
			c2.11,0,3.58,0.09,4.74,0.29l0.2,0.04c3.93,0.79,8.23,4.04,8.58,10.82c0.22,2.83-0.09,5.99-0.91,9.37
			c-0.74,3.15-1.86,6.09-3.34,8.68c-3.05,5.49-7.35,6.31-9.65,6.31c-0.59,0-1.19-0.07-1.78-0.17c0.15,0.16,0.3,0.31,0.44,0.48
			c1.28,1.48,2.36,3.08,3.24,4.79h3.97c9.22-10.11,19.12-15.65,28.13-15.65c2.63,0,5.14,0.46,7.5,1.35
			c1.79-3.12,3.11-5.11,4.38-6.46c2.2-2.37,5.35-3.67,8.88-3.67c4.13,0,9.01,1.87,13.2,4.64l12.35-11.48
			c4.31-8.51,7.96-15.97,10.59-21.45c1.38-2.93,3.84-4.98,7-5.92c0.48-2.56,0.73-5.21,0.73-7.93v-15.77c0-2.89-2.35-5.24-5.24-5.24
			h-22.77h-44.76c-2.89,0-5.24,2.35-5.24,5.24v25.64c0,5.57-5.52,9.05-9.94,6.26L78.15,187.7c-4.42-2.78-4.42-9.74,0-12.53
			l84.64-61.91c4.42-2.78,9.94,0.7,9.94,6.26v25.64c0,2.89,2.35,5.24,5.24,5.24h44.76h22.77c2.89,0,5.24-2.35,5.24-5.24v-0.96
			c0-2.16,0-4.49,0-7c0-2.5-0.06-4.89-0.18-7.17c-0.12-2.27-0.18-3.86-0.18-4.78c0-9.78-3.74-18.55-11.22-26.29
			c-4.59-4.55-9.17-8.93-13.75-13.15c-4.58-4.21-9.29-8.59-14.11-13.15c-8.69-7.74-18.82-11.61-30.41-11.61H88.96
			c-11.58,0-21.71,3.87-30.4,11.61c-4.83,4.56-9.54,8.94-14.12,13.15c-4.59,4.22-9.17,8.59-13.75,13.15
			c-7.48,7.74-11.22,16.51-11.22,26.29c-0.24,9.34-0.3,18.55-0.18,27.66c0.12,9.11,0.06,18.33-0.18,27.66v52.92
			c0,11.84,4.46,21.97,13.39,30.39l7.27,6.86c0.24-0.07,0.48-0.13,0.71-0.18C45.27,269.58,53.58,268.39,64.55,267.11z"/>
		<path class="st1" d="M111.18,291.42c-4.74,0.03-9.36,0.11-13.98,0.35c0.02,1.74-0.42,3.49-1.32,5.09
			c-0.57,1.03-1.13,2.05-1.68,3.05c1.74,0.03,3.58,0.06,5.51,0.08C103.39,296.59,107.25,293.66,111.18,291.42z"/>
	</g>
	<g>
		<path class="st2" d="M290.81,314.77c2.41-4.9,1.26-10.18-1.8-14.42c-4.58-6.36-13.44-10.36-20.96-7.11
			c-2.52,1.08-5.5,3.69-8.66,7.11c-9.35,10.13-20.19,27.41-24.77,33.5c3.13-8.36,8.94-21.34,15.64-34.09
			c7.33-13.96,15.73-27.65,22.86-34.69c2.35-2.35,0.34-5.91-3.32-9.1c-6.28-5.48-17.39-9.86-19.61-5.16
			c-13.04,27.13-66.33,135.03-83.57,116.12c-9.28-10.15,12.16-58.46,27.48-64.84c-7,12.43-16.01,38.85-4.38,46.38
			c1.84-13.13,19.95-42.27,31.5-52.68c2.38-2.13-2.1-6.96-7.24-9.85c-3.93-2.21-8.25-3.3-10.18-1.17c-2.01,2.1-6.3,10.59-7.44,12.43
			c-7.17-7.97-17.36-5.27-26.92,2.83c-10.4,8.82-20.05,24.03-24.25,38.85c-17.17,26.72-37.87,39.57-42.38,31.3
			c-3.15-5.95,0.44-21.44,3.85-29.05c21.26,15.66,39.38-7.61,42-25.55c0.92-6.35-0.83-11.72-4.33-15.49
			c-5.13-5.53-14-7.62-23.68-4.29c-2.73,0.95-5.51,2.42-8.27,4.29c-10.87,7.35-21.43,20.97-27.48,34.59
			c-2.99,5-5.73,9.68-8.27,13.99c-6.39,10.94-11.46,19.08-15.23,24.24c-3.76,5.16-6.3,7.53-7.61,6.91
			c-1.31-0.61-0.7-5.25,1.75-14.09c2.45-8.75,6.56-19.43,12.43-31.94c4.95-10.73,10.42-21.53,17.34-34.26
			c1.15-2.12,2.34-4.29,3.58-6.52c1.66-2.98-3.33-5.95-15.84-6.3c15.23-3.06,29.14-3.24,42.62-3.24c13.39,0.09,25.38,1.22,35.97,3.5
			c1.14,0.26,2.19-0.44,3.15-2.19c1.05-1.84,1.93-4.03,2.54-6.65c0.61-2.54,0.87-4.9,0.7-7c-0.09-2.1-0.88-3.24-2.19-3.5
			c-2.01-0.35-8.14-0.17-18.29,0.53c-10.24,0.79-21.96,1.75-35.18,2.98c2.45-3.59,4.99-7.09,7.44-10.24
			c1.14-1.58,0.88-3.59-0.79-5.95c-1.75-2.36-4.2-4.46-7.35-6.47c-3.24-1.93-6.39-3.15-9.45-3.59c-3.06-0.44-5.34,0.35-6.74,2.54
			c-4.11,7.7-8.66,16.63-13.74,26.95c-2.1,0.18-4.2,0.44-6.3,0.7c-7.88,0.92-14.05,1.75-18.52,2.46c-1.93,0.31-3.55,0.6-4.85,0.86
			c-5.08,1.05,0,17.59,5.16,15.05c4.79-1.4,9.07-2.62,12.8-3.65c1.65-0.46,3.2-0.88,4.62-1.25c-0.57,1.22-1.13,2.41-1.68,3.59
			c-7.24,15.53-12.42,27.42-17.14,39.38c-5.86,14.61-9.45,26.78-10.94,36.49c-0.7,4.64-0.35,9.01,1.05,12.95
			c1.4,3.94,4.46,7.09,9.19,9.45c6.91,3.41,13.04,2.19,18.55-3.5c4.2-4.64,8.58-10.94,13.13-18.99c1.21-2.16,2.39-4.3,3.56-6.42
			c3.83,15.61,28.45,27.47,43.52,17.28c6.57-4.48,13.26-13.13,19.21-22.21c0.09,1.04,0.22,2.05,0.39,3.05
			c3.06,17.24,28.79,25.29,44.54,14c12.08-8.66,23.89-34.48,34.3-53.12c-6.91,16.1-11.81,29.49-17.85,43.84
			c-3.33,7.88,18.55,13.91,21,8.05c16.98-40.17,44.45-76.66,49.79-70.01c1.4,1.58-1.4,5.69-6.13,12.43
			c-9.63,14-23.71,36.75-26.17,53.47c-3.5,25.03,17.24,35.88,29.75,31.5C248.11,391.07,284.25,328.24,290.81,314.77z M136,304.7
			c3.76,2.28-11.11,33.25-27.13,31.07C113.69,323.6,130.67,301.46,136,304.7z"/>
		<path class="st2" d="M319.87,304c0.97,0.5,3.17-1.08,5.86-3.66c6.25-6.01,15.16-17.5,17.42-21.11
			c3.59-5.78-14.96-16.71-18.64-9.98c-2.33,4.24-6.31,22.98-5.83,31.08C318.8,302.29,319.16,303.63,319.87,304z"/>
		<path class="st2" d="M448.34,331.31c0.18-9.54,6.04-28,18.46-42.27c2.61-3.06-5.43-8.93-11.79-10.9c-2.38-0.74-4.53-0.93-5.8-0.21
			c-1.68,0.92-4.3,7.25-5.81,11.52c-0.22,0.62-0.41,1.19-0.58,1.7c-0.23-0.16-0.47-0.31-0.71-0.46c-9.98-6.24-23.05-3.51-32.37,6.23
			c-1.01,1.07-2.02,2.22-3.01,3.43c-18.55,22.59-34.42,68.82-53.52,71.48c-14.26,1.93-14-21.7-8.49-32.29
			c21.27,15.66,39.73-8.31,42.27-26.25c0.74-5.05-0.19-9.47-2.32-12.93c-4.43-7.22-14.11-10.31-24.98-6.41
			c-3.93,1.43-7.79,3.64-11.49,6.41c-14.84,11.11-27,31.34-29.53,47.45c-8.17,15.06-14.97,24.93-17.52,22.8
			c-3.15-2.63,7.18-31.33,24.07-53.82c3.41-4.46-16.36-17.15-20.04-11.46c-6.3,9.98-24.68,42.62-22.84,60.47
			c1.58,15.66,22.05,20.48,29.49,10.24c2.67-3.71,5.33-8.32,7.92-13.26c6.51,18.49,31.79,26.64,47.21,16.41
			c16.98-11.29,27.48-43.58,37.72-56.44c0.53,7,5.69,15.31,10.06,20.83c-6.91,3.68-21.18,12.78-27.04,23.19
			c-9.54,16.89,6.74,33.17,24.59,28.88c19.6-4.73,34.83-29.75,21.26-50.67c10.33-5.86,24.5-7.96,31.07-8.23
			c-4.55-4.03-19.52-6.13-36.06,0.79c-10.68-19.69-7.18-37.63,12.6-41.57C434.51,315.9,441.08,328.59,448.34,331.31z M373.08,303.56
			c2.54,1.66-11.99,32.38-25.9,29.93C351.99,321.33,367.83,300.24,373.08,303.56z M410.1,373.92c-11.73,10.59-23.1,7.7-6.74-9.28
			c4.2-4.29,9.71-8.84,16.28-12.43C420.25,360.45,415.79,368.85,410.1,373.92z"/>
	</g>
</g>
</svg>
