<?xml version="1.0" encoding="utf-8"?>
<!-- Generator: Adobe Illustrator 27.7.0, SVG Export Plug-In . SVG Version: 6.00 Build 0)  -->
<svg version="1.1" id="Layer_1" xmlns="http://www.w3.org/2000/svg" xmlns:xlink="http://www.w3.org/1999/xlink" x="0px" y="0px"
	 viewBox="0 0 464.7 341.1" style="enable-background:new 0 0 464.7 341.1;" xml:space="preserve">
<style type="text/css">
	.st0{fill:none;}
	.st1{fill:#678693;}
	.st2{fill:#2E3E47;}
</style>
<path class="st0" d="M232.3,240.9c0.2-0.2,0.3-0.5,0.5-0.7H232C232.1,240.5,232.2,240.7,232.3,240.9z"/>
<g>
	<g>
		<path class="st1" d="M263.4,197.7c1.9,4.7,1.1,9.5-2.3,12.9c-2.6,2.5-6.3,7.5-10.6,14.1c1.8-0.5,3.6-0.7,5.5-0.7
			c8.9,0,17.8,5.1,22.8,13.1c0.6,1,1.2,2.1,1.7,3.2h0.8c2.2-2.9,5.5-4.5,9.5-4.5c0.8,0,1.5,0.1,2.3,0.2c0.6-11.1,4.5-26.5,6.8-30.7
			c2.2-4,6.3-6.3,11.2-6.3c7.6,0,17.5,5.7,21.1,12.2c2.3,4.1,2.3,8.4,0,12c-1.7,2.7-6,8.5-10.8,14.1c5.6-5,11.7-8.8,17.8-11.1
			c4-1.5,8.1-2.2,12-2.2c8.1,0,15.3,3.1,20.2,8.8c1.9,2.2,3.3,4.6,4.3,7.3h3.2c2.4-3.3,4.8-6.3,7.3-8.9c7.3-7.7,17-12.1,26.4-12.1
			c2.7,0,5.4,0.4,7.9,1c1.7-3.9,4.1-7.8,7-9.4l0,0c1.7-1,3.8-1.5,6-1.5c2.9,0,6.4,0.9,9.9,2.5c3.1-3.2,6.2-6.5,9.3-9.8
			c7-7.5,10.6-16,10.6-25.6V65.8c0-9.5-3.5-18.1-10.6-25.6c-5.2-5.7-10.6-11.2-16.2-16.7c-5.6-5.4-11.2-10.9-16.9-16.3
			c-3.9-3.4-8.1-5.1-12.6-5.1H237.7c-8,0-12.2,9.4-6.9,15.4l1,1.1c6.2,6.9,20.4,15.9,20.4,25.1V85c0,2.9,2.4,5.2,5.2,5.2h17.4h37
			c2,0,3.7-1.7,3.7-3.7V59.4c0-5.6,5.5-9.1,9.9-6.3l84.6,61.9c4.4,2.8,4.4,9.7,0,12.5l-84.6,61.9c-4.4,2.8-9.9-0.7-9.9-6.3v-25.6
			c0-2.9-2.4-5.2-5.2-5.2h-35.5h-17.4c-2.9,0-5.2,2.4-5.2,5.2V186C257.2,189.1,261.6,193.3,263.4,197.7z"/>
		<path class="st1" d="M46.9,207c0.7-0.1,1.3-0.2,2-0.2c4.3-8.8,8.3-16.4,11.9-23.2l0.2-0.3l0.2-0.3c2.6-4.1,6.8-6.3,11.9-6.3
			c0.9,0,1.8,0.1,2.7,0.2c4,0.6,8.2,2.1,12.4,4.6l0.2,0.1c4.1,2.6,7.2,5.4,9.5,8.4l0.1,0.2c2.6,3.7,3.5,7.8,2.6,11.4
			c6.2-0.5,12.4-1,18.8-1.5c7.1-0.5,12.1-0.7,15.5-0.7c2.1,0,3.6,0.1,4.7,0.3l0.2,0c3.9,0.8,8.2,4,8.6,10.8c0.2,2.8-0.1,6-0.9,9.4
			c-0.7,3.1-1.9,6.1-3.3,8.7c-3.1,5.5-7.4,6.3-9.6,6.3c-0.6,0-1.2-0.1-1.8-0.2c0.1,0.2,0.3,0.3,0.4,0.5c1.3,1.5,2.4,3.1,3.2,4.8h4
			c9.2-10.1,19.1-15.6,28.1-15.6c2.6,0,5.1,0.5,7.5,1.4c1.8-3.1,3.1-5.1,4.4-6.5c2.2-2.4,5.4-3.7,8.9-3.7c4.1,0,9,1.9,13.2,4.6
			l12.4-11.5c4.3-8.5,8-16,10.6-21.4c1.4-2.9,3.8-5,7-5.9c0.5-2.6,0.7-5.2,0.7-7.9v-15.8c0-2.9-2.4-5.2-5.2-5.2h-22.8h-44.8
			c-2.9,0-5.2,2.4-5.2,5.2v25.6c0,5.6-5.5,9.1-9.9,6.3l-84.7-61.9c-4.4-2.8-4.4-9.7,0-12.5l84.6-61.9c4.4-2.8,9.9,0.7,9.9,6.3v25.6
			c0,2.9,2.4,5.2,5.2,5.2h44.8h22.8c2.9,0,5.2-2.4,5.2-5.2v-1c0-2.2,0-4.5,0-7c0-2.5-0.1-4.9-0.2-7.2c-0.1-2.3-0.2-3.9-0.2-4.8
			c0-9.8-3.7-18.6-11.2-26.3c-4.6-4.6-9.2-8.9-13.8-13.1c-4.6-4.2-9.3-8.6-14.1-13.2c-8.7-7.7-18.8-11.6-30.4-11.6H71.3
			c-11.6,0-21.7,3.9-30.4,11.6c-4.8,4.6-9.5,8.9-14.1,13.2c-4.6,4.2-9.2,8.6-13.8,13.1C5.5,46.6,1.8,55.4,1.8,65.1
			c-0.2,9.3-0.3,18.6-0.2,27.7c0.1,9.1,0.1,18.3-0.2,27.7v52.9c0,11.8,4.5,22,13.4,30.4l7.3,6.9c0.2-0.1,0.5-0.1,0.7-0.2
			C27.6,209.5,35.9,208.3,46.9,207z"/>
		<path class="st1" d="M93.5,231.3c-4.7,0-9.4,0.1-14,0.4c0,1.7-0.4,3.5-1.3,5.1c-0.6,1-1.1,2-1.7,3c1.7,0,3.6,0.1,5.5,0.1
			C85.7,236.5,89.6,233.6,93.5,231.3z"/>
	</g>
	<g>
		<path class="st2" d="M273.1,254.7c2.4-4.9,1.3-10.2-1.8-14.4c-4.6-6.4-13.4-10.4-21-7.1c-2.5,1.1-5.5,3.7-8.7,7.1
			c-9.4,10.1-20.2,27.4-24.8,33.5c3.1-8.4,8.9-21.3,15.6-34.1c7.3-14,15.7-27.6,22.9-34.7c2.4-2.4,0.3-5.9-3.3-9.1
			c-6.3-5.5-17.4-9.9-19.6-5.2c-13,27.1-66.3,135-83.6,116.1c-9.3-10.1,12.2-58.5,27.5-64.8c-7,12.4-16,38.8-4.4,46.4
			c1.8-13.1,19.9-42.3,31.5-52.7c2.4-2.1-2.1-7-7.2-9.9c-3.9-2.2-8.2-3.3-10.2-1.2c-2,2.1-6.3,10.6-7.4,12.4
			c-7.2-8-17.4-5.3-26.9,2.8c-10.4,8.8-20.1,24-24.2,38.8c-17.2,26.7-37.9,39.6-42.4,31.3c-3.2-6,0.4-21.4,3.8-29
			c21.3,15.7,39.4-7.6,42-25.5c0.9-6.4-0.8-11.7-4.3-15.5c-5.1-5.5-14-7.6-23.7-4.3c-2.7,1-5.5,2.4-8.3,4.3
			c-10.9,7.4-21.4,21-27.5,34.6c-3,5-5.7,9.7-8.3,14c-6.4,10.9-11.5,19.1-15.2,24.2c-3.8,5.2-6.3,7.5-7.6,6.9
			c-1.3-0.6-0.7-5.2,1.8-14.1c2.5-8.8,6.6-19.4,12.4-31.9c4.9-10.7,10.4-21.5,17.3-34.3c1.2-2.1,2.3-4.3,3.6-6.5
			c1.7-3-3.3-6-15.8-6.3c15.2-3.1,29.1-3.2,42.6-3.2c13.4,0.1,25.4,1.2,36,3.5c1.1,0.3,2.2-0.4,3.1-2.2c1.1-1.8,1.9-4,2.5-6.6
			c0.6-2.5,0.9-4.9,0.7-7c-0.1-2.1-0.9-3.2-2.2-3.5c-2-0.4-8.1-0.2-18.3,0.5c-10.2,0.8-22,1.8-35.2,3c2.4-3.6,5-7.1,7.4-10.2
			c1.1-1.6,0.9-3.6-0.8-5.9c-1.8-2.4-4.2-4.5-7.3-6.5c-3.2-1.9-6.4-3.1-9.4-3.6s-5.3,0.4-6.7,2.5c-4.1,7.7-8.7,16.6-13.7,27
			c-2.1,0.2-4.2,0.4-6.3,0.7c-7.9,0.9-14,1.8-18.5,2.5c-1.9,0.3-3.5,0.6-4.8,0.9c-5.1,1,0,17.6,5.2,15c4.8-1.4,9.1-2.6,12.8-3.6
			c1.7-0.5,3.2-0.9,4.6-1.2c-0.6,1.2-1.1,2.4-1.7,3.6c-7.2,15.5-12.4,27.4-17.1,39.4c-5.9,14.6-9.5,26.8-10.9,36.5
			c-0.7,4.6-0.3,9,1,13c1.4,3.9,4.5,7.1,9.2,9.5c6.9,3.4,13,2.2,18.5-3.5c4.2-4.6,8.6-10.9,13.1-19c1.2-2.2,2.4-4.3,3.6-6.4
			c3.8,15.6,28.5,27.5,43.5,17.3c6.6-4.5,13.3-13.1,19.2-22.2c0.1,1,0.2,2,0.4,3c3.1,17.2,28.8,25.3,44.5,14
			c12.1-8.7,23.9-34.5,34.3-53.1c-6.9,16.1-11.8,29.5-17.9,43.8c-3.3,7.9,18.6,13.9,21,8c17-40.2,44.4-76.7,49.8-70
			c1.4,1.6-1.4,5.7-6.1,12.4c-9.6,14-23.7,36.7-26.2,53.5c-3.5,25,17.2,35.9,29.7,31.5C230.4,331,266.6,268.1,273.1,254.7z
			 M118.3,244.6c3.8,2.3-11.1,33.2-27.1,31.1C96,263.5,113,241.4,118.3,244.6z"/>
		<path class="st2" d="M302.2,243.9c1,0.5,3.2-1.1,5.9-3.7c6.2-6,15.2-17.5,17.4-21.1c3.6-5.8-15-16.7-18.6-10
			c-2.3,4.2-6.3,23-5.8,31.1C301.1,242.2,301.5,243.5,302.2,243.9z"/>
		<path class="st2" d="M430.7,271.2c0.2-9.5,6-28,18.5-42.3c2.6-3.1-5.4-8.9-11.8-10.9c-2.4-0.7-4.5-0.9-5.8-0.2
			c-1.7,0.9-4.3,7.2-5.8,11.5c-0.2,0.6-0.4,1.2-0.6,1.7c-0.2-0.2-0.5-0.3-0.7-0.5c-10-6.2-23-3.5-32.4,6.2c-1,1.1-2,2.2-3,3.4
			c-18.5,22.6-34.4,68.8-53.5,71.5c-14.3,1.9-14-21.7-8.5-32.3c21.3,15.7,39.7-8.3,42.3-26.2c0.7-5-0.2-9.5-2.3-12.9
			c-4.4-7.2-14.1-10.3-25-6.4c-3.9,1.4-7.8,3.6-11.5,6.4c-14.8,11.1-27,31.3-29.5,47.4c-8.2,15.1-15,24.9-17.5,22.8
			c-3.1-2.6,7.2-31.3,24.1-53.8c3.4-4.5-16.4-17.1-20-11.5c-6.3,10-24.7,42.6-22.8,60.5c1.6,15.7,22,20.5,29.5,10.2
			c2.7-3.7,5.3-8.3,7.9-13.3c6.5,18.5,31.8,26.6,47.2,16.4c17-11.3,27.5-43.6,37.7-56.4c0.5,7,5.7,15.3,10.1,20.8
			c-6.9,3.7-21.2,12.8-27,23.2c-9.5,16.9,6.7,33.2,24.6,28.9c19.6-4.7,34.8-29.8,21.3-50.7c10.3-5.9,24.5-8,31.1-8.2
			c-4.5-4-19.5-6.1-36.1,0.8c-10.7-19.7-7.2-37.6,12.6-41.6C416.8,255.8,423.4,268.5,430.7,271.2z M355.4,243.5
			c2.5,1.7-12,32.4-25.9,29.9C334.3,261.2,350.2,240.1,355.4,243.5z M392.4,313.8c-11.7,10.6-23.1,7.7-6.7-9.3
			c4.2-4.3,9.7-8.8,16.3-12.4C402.6,300.3,398.1,308.7,392.4,313.8z"/>
	</g>
</g>
</svg>
