<?xml version="1.0" encoding="utf-8"?>
<!-- Generator: Adobe Illustrator 27.7.0, SVG Export Plug-In . SVG Version: 6.00 Build 0)  -->
<svg version="1.1" id="Layer_1" xmlns="http://www.w3.org/2000/svg" xmlns:xlink="http://www.w3.org/1999/xlink" x="0px" y="0px"
	 viewBox="0 0 1500 500" style="enable-background:new 0 0 1500 500;" xml:space="preserve">
<style type="text/css">
	.st0{fill:#678693;}
	.st1{fill:#2E3E47;}
</style>
<g>
	<g>
		<path class="st0" d="M366.16,293.15v-4.77c0.1-2.5,0.17-5.08,0.17-7.77c0-3.43,0-6.62,0-9.57L366.1,271
			c-0.3-3.69-3.35-6.6-7.11-6.6h-31.15h-3.78H266.6c-3.96,0-7.17,3.21-7.17,7.17v35.07c0,7.62-7.56,12.38-13.6,8.57l-109.82-80.33
			l-5.97-4.37c-6.04-3.81-6.04-13.33,0-17.14l115.79-84.7c6.04-3.81,13.6,0.95,13.6,8.57v35.07c0,3.96,3.21,7.17,7.17,7.17h61.24
			h31.15c3.96,0,7.17-3.21,7.17-7.17v-1.31c0-2.96,0-6.14,0-9.57c0-3.42-0.09-6.69-0.25-9.81c-0.17-3.11-0.25-5.29-0.25-6.54
			c0-13.38-5.12-25.37-15.35-35.96c-6.28-6.23-12.55-12.22-18.82-17.98c-6.27-5.76-12.71-11.75-19.31-17.98
			c-11.89-10.58-25.75-15.88-41.6-15.88H144.83c-15.84,0-29.71,5.3-41.59,15.88c-6.61,6.23-13.04,12.23-19.31,17.98
			c-6.28,5.77-12.55,11.76-18.81,17.98c-10.24,10.59-15.35,22.58-15.35,35.96c-0.33,12.78-0.41,25.38-0.25,37.83
			c0.16,12.46,0.08,25.07-0.25,37.84v72.4c0,5.34,0.68,10.43,2.01,15.27c2.13,8.86,6.79,17.04,14.01,24.51
			c6.27,6.23,12.54,12.22,18.81,17.98c6.27,5.76,12.7,11.75,19.31,17.98c11.89,10.58,25.75,15.88,41.59,15.88h125.76
			c15.85,0,29.71-5.3,41.6-15.88c6.6-6.23,13.03-12.23,19.31-17.98c6.27-5.77,12.54-11.76,18.82-17.98
			c9.33-9.66,14.4-20.5,15.22-32.48C366,298.06,366.16,295.63,366.16,293.15z"/>
		<path class="st0" d="M624.52,344.13c-3.47-9.77-4.37-20.42-2.68-31.66c3.03-19.81,10.27-44.04,21.5-72.05
			c6.47-16.39,13.46-32.88,22.1-52.05c-0.16,0.05-0.32,0.09-0.48,0.14c-2.28,0.89-4.67,1.35-7.12,1.35
			c-16.83,0-25.14-19.85-26.42-32.36c-1.7-16.58,7.41-24.47,15.72-26.19c6.62-1.35,16.85-2.92,30.03-4.61
			c-2.4-5.52-5.88-10.73-10.47-15.61c-7.15-7.76-14.53-15.38-22.13-22.83c-7.62-7.46-15.3-14.91-23.07-22.37
			c-5.29-4.66-11.03-6.99-17.24-6.99H372.43c-10.93,0-16.72,12.92-9.45,21.08l1.34,1.5c8.43,9.47,27.93,21.7,27.93,34.38v56.46
			c0,3.96,3.21,7.17,7.17,7.17h23.74h50.69c2.79,0,5.06-2.27,5.06-5.06v-37.18c0-7.62,7.56-12.38,13.6-8.57l103.77,75.9l12.03,8.8
			c3.4,2.14,4.89,6.09,4.46,9.82c-0.33,2.9-1.82,5.66-4.46,7.32l-115.79,84.7c-6.04,3.81-13.6-0.95-13.6-8.57v-13.93v-8.12v-13.02
			c0-0.06-0.02-0.12-0.02-0.18v-1.62c0-2.79-2.27-5.06-5.06-5.06h-0.1c-0.64-0.18-1.29-0.31-1.99-0.31h-48.58h-23.74
			c-3.96,0-7.17,3.21-7.17,7.17v0.14c0,0.06-0.02,0.12-0.02,0.18v56.46c0,12.68-19.49,24.92-27.93,34.38l-1.34,1.5
			c-7.27,8.16-1.48,21.08,9.45,21.08h231.84c6.21,0,11.95-2.33,17.24-6.99c5.41-5.19,10.77-10.39,16.1-15.58
			C631.46,357.54,627.08,351.33,624.52,344.13z"/>
		<g>
			<g>
				<path class="st1" d="M1118.44,214.55c11.37-23.06-19.28-50.74-42.84-40.53c-18.78,8.07-51.4,61.12-62.94,76.45
					c12.36-32.95,46.79-104.12,72.49-129.5c12.03-12.03-36.58-40.86-43.16-26.85c-24.55,51.07-124.88,254.21-157.34,218.63
					c-17.46-19.11,22.9-110.06,51.73-122.08c-13.18,23.4-30.15,73.15-8.24,87.32c3.46-24.71,37.56-79.58,59.31-99.18
					c7.91-7.08-24.38-29.98-32.79-20.76c-3.79,3.95-11.86,19.94-14,23.39c-28.22-31.37-81.22,24.99-96.36,78.53
					c-32.33,50.29-71.28,74.43-79.77,58.87c-5.93-11.2,0.82-40.36,7.25-54.7c40.04,29.49,74.14-14.33,79.08-48.11
					c4.28-29.49-22.08-47.78-52.72-37.23c-25.43,8.87-53.08,41.1-67.35,73.26c-5.61,9.38-10.76,18.16-15.53,26.25
					c-12.03,20.59-21.58,35.92-28.67,45.64c-7.08,9.72-11.86,14.17-14.33,13.01c-2.47-1.15-1.32-9.88,3.3-26.52
					c4.61-16.48,12.36-36.58,23.4-60.13c10.87-23.56,23.07-47.28,39.38-76.77c3.13-5.6-6.26-11.2-29.82-11.86
					c28.67-5.77,54.86-6.09,80.24-6.09c25.21,0.16,47.78,2.31,67.71,6.59c2.14,0.49,4.12-0.82,5.93-4.12
					c1.98-3.46,3.62-7.58,4.78-12.52c1.15-4.78,1.65-9.23,1.32-13.18c-0.16-3.95-1.65-6.1-4.12-6.59
					c-3.79-0.66-15.32-0.33-34.43,0.99c-19.28,1.48-41.35,3.3-66.23,5.6c4.61-6.76,9.39-13.34,14-19.28
					c2.14-2.97,1.65-6.76-1.48-11.2c-3.29-4.45-7.91-8.4-13.84-12.19c-6.1-3.63-12.03-5.93-17.79-6.76
					c-5.77-0.82-10.05,0.66-12.69,4.78c-7.74,14.5-16.31,31.3-25.87,50.74c-3.95,0.33-7.91,0.82-11.86,1.32
					c-21.25,2.47-35.92,4.61-43.99,6.26c-9.56,1.98,0,33.12,9.72,28.34c13.02-3.79,24.05-6.92,32.79-9.23
					c-15.32,32.62-25.87,56.68-35.42,80.89c-11.04,27.51-17.79,50.42-20.59,68.7c-1.32,8.73-0.66,16.97,1.98,24.38
					c2.64,7.41,8.4,13.34,17.3,17.79c13.02,6.43,24.55,4.12,34.93-6.59c7.91-8.73,16.15-20.59,24.71-35.75
					c2.27-4.06,4.5-8.09,6.7-12.1c7.2,29.39,53.56,51.72,81.94,32.52c12.37-8.44,24.97-24.72,36.17-41.82
					c0.16,1.95,0.41,3.87,0.74,5.74c5.77,32.46,54.2,47.61,83.86,26.36c22.74-16.31,44.98-64.91,64.58-100.01
					c-13.01,30.31-22.24,55.52-33.61,82.54c-6.26,14.83,34.93,26.2,39.54,15.16c31.96-75.62,83.69-144.32,93.74-131.8
					c2.64,2.97-2.64,10.71-11.53,23.39c-18.12,26.36-44.65,69.2-49.26,100.67c-6.59,47.12,32.46,67.55,56.01,59.31
					C1038.04,358.21,1106.08,239.92,1118.44,214.55z M826.99,195.6c7.08,4.28-20.92,62.61-51.07,58.49
					C784.97,231.19,816.93,189.51,826.99,195.6z"/>
				<path class="st1" d="M1173.15,194.28c6.1,3.13,37.73-36.91,43.82-46.63c6.75-10.87-28.17-31.47-35.09-18.78
					C1176.45,138.76,1166.23,190.66,1173.15,194.28z"/>
				<path class="st1" d="M1415.01,245.69c0.33-17.96,11.37-52.72,34.76-79.58c6.75-7.91-24.38-25.87-33.12-20.93
					c-3.63,1.98-9.56,17.3-12.03,24.88c-18.95-12.85-44.32-7.91-62.28,10.87c-37.4,39.38-68.54,135.76-106.43,141.03
					c-26.86,3.63-26.36-40.86-15.98-60.79c40.04,29.49,74.8-15.65,79.58-49.43c4.29-29.33-21.09-47.28-51.4-36.41
					c-37.05,13.46-71.29,63.5-77.24,101.4c-15.39,28.36-28.19,46.94-32.99,42.93c-5.93-4.94,13.51-58.98,45.31-101.32
					c6.43-8.4-30.81-32.29-37.73-21.58c-11.86,18.78-46.46,80.24-43,113.85c2.97,29.49,41.52,38.55,55.52,19.28
					c5.02-6.98,10.04-15.66,14.91-24.97c12.26,34.8,59.85,50.16,88.88,30.9c31.96-21.25,51.73-82.05,71.01-106.27
					c0.99,13.18,10.71,28.83,18.95,39.21c-13.02,6.92-39.87,24.05-50.91,43.66c-17.96,31.8,12.69,62.44,46.3,54.37
					c36.9-8.9,65.57-56.01,40.03-95.39c19.44-11.04,46.13-14.99,58.49-15.49c-8.57-7.58-36.74-11.53-67.88,1.48
					c-20.1-37.07-13.51-70.84,23.73-78.26C1388.98,216.69,1401.34,240.58,1415.01,245.69z M1273.33,193.46
					c4.78,3.13-22.57,60.96-48.77,56.35C1233.62,226.9,1263.44,187.2,1273.33,193.46z M1343.02,325.92
					c-22.08,19.94-43.5,14.5-12.69-17.46c7.91-8.07,18.29-16.64,30.64-23.39C1362.13,300.55,1353.72,316.37,1343.02,325.92z"/>
			</g>
		</g>
	</g>
</g>
</svg>
